<svg width="14" height="20" viewBox="0 0 14 20" fill="none" xmlns="http://www.w3.org/2000/svg">
<path d="M7 19.0181C5.05 19.0181 3.39583 18.3389 2.0375 16.9806C0.679167 15.6223 0 13.9681 0 12.0181C0 10.4514 0.4625 9.04727 1.3875 7.8056C2.3125 6.56394 3.525 5.72644 5.025 5.2931C4.69167 5.20977 4.36667 5.08894 4.05 4.9306C3.73333 4.77227 3.45 4.5681 3.2 4.3181C2.65 3.7681 2.29583 3.11394 2.1375 2.3556C1.97917 1.59727 1.94167 0.826437 2.025 0.0431034C2.80833 -0.0402299 3.57917 -0.00272988 4.3375 0.155603C5.09583 0.313937 5.75 0.668103 6.3 1.2181C6.68333 1.60144 6.9625 2.03477 7.1375 2.5181C7.3125 3.00144 7.425 3.50977 7.475 4.0431C7.69167 3.52644 7.95417 3.03894 8.2625 2.5806C8.57083 2.12227 8.91667 1.70144 9.3 1.3181C9.48333 1.13477 9.71667 1.0431 10 1.0431C10.2833 1.0431 10.5167 1.13477 10.7 1.3181C10.8833 1.50144 10.975 1.73477 10.975 2.0181C10.975 2.30144 10.8833 2.53477 10.7 2.7181C10.3333 3.08477 10.0083 3.48894 9.725 3.9306C9.44167 4.37227 9.23333 4.8431 9.1 5.3431C10.5667 5.80977 11.75 6.6556 12.65 7.8806C13.55 9.1056 14 10.4848 14 12.0181C14 13.9681 13.3208 15.6223 11.9625 16.9806C10.6042 18.3389 8.95 19.0181 7 19.0181ZM7 17.0181C8.38333 17.0181 9.5625 16.5306 10.5375 15.5556C11.5125 14.5806 12 13.4014 12 12.0181C12 10.6348 11.5125 9.4556 10.5375 8.4806C9.5625 7.5056 8.38333 7.0181 7 7.0181C5.61667 7.0181 4.4375 7.5056 3.4625 8.4806C2.4875 9.4556 2 10.6348 2 12.0181C2 13.4014 2.4875 14.5806 3.4625 15.5556C4.4375 16.5306 5.61667 17.0181 7 17.0181Z" fill="#7D525F"/>
</svg>
