<svg width="20" height="25" viewBox="0 0 20 25" fill="none" xmlns="http://www.w3.org/2000/svg">
<path d="M0 21.25V18.75H2.5V10C2.5 8.27083 3.02083 6.73438 4.0625 5.39062C5.10417 4.04688 6.45833 3.16667 8.125 2.75V1.875C8.125 1.35417 8.30729 0.911458 8.67188 0.546875C9.03646 0.182292 9.47917 0 10 0C10.5208 0 10.9635 0.182292 11.3281 0.546875C11.6927 0.911458 11.875 1.35417 11.875 1.875V2.75C13.5417 3.16667 14.8958 4.04688 15.9375 5.39062C16.9792 6.73438 17.5 8.27083 17.5 10V18.75H20V21.25H0V21.25M10 11.875V11.875V11.875V11.875V11.875V11.875V11.875V11.875V11.875M10 25C9.3125 25 8.72396 24.7552 8.23438 24.2656C7.74479 23.776 7.5 23.1875 7.5 22.5H12.5C12.5 23.1875 12.2552 23.776 11.7656 24.2656C11.276 24.7552 10.6875 25 10 25V25M5 18.75H15V10C15 8.625 14.5104 7.44792 13.5312 6.46875C12.5521 5.48958 11.375 5 10 5C8.625 5 7.44792 5.48958 6.46875 6.46875C5.48958 7.44792 5 8.625 5 10V18.75V18.75" fill="#4A6549"/>
</svg>
