<svg width="21" height="18" viewBox="0 0 21 18" fill="none" xmlns="http://www.w3.org/2000/svg">
<path d="M1.175 7C1.10833 6.75 1.0625 6.5 1.0375 6.25C1.0125 6 1 5.74167 1 5.475C1 3.90833 1.525 2.60417 2.575 1.5625C3.625 0.520833 4.93333 0 6.5 0C7.35 0 8.17083 0.183333 8.9625 0.55C9.75417 0.916667 10.4333 1.43333 11 2.1C11.5667 1.43333 12.2417 0.916667 13.025 0.55C13.8083 0.183333 14.6333 0 15.5 0C17.0667 0 18.375 0.520833 19.425 1.5625C20.475 2.60417 21 3.90833 21 5.475C21 5.49167 21 5.5 21 5.5C21 5.5 21 5.50833 21 5.525C20.6833 5.24167 20.3417 4.99583 19.975 4.7875C19.6083 4.57917 19.2167 4.40833 18.8 4.275C18.5667 3.59167 18.15 3.04167 17.55 2.625C16.95 2.20833 16.2667 2 15.5 2C14.7833 2 14.0917 2.2125 13.425 2.6375C12.7583 3.0625 12.1417 3.68333 11.575 4.5H10.425C9.875 3.7 9.25833 3.08333 8.575 2.65C7.89167 2.21667 7.2 2 6.5 2C5.51667 2 4.6875 2.3375 4.0125 3.0125C3.3375 3.6875 3 4.50833 3 5.475C3 5.74167 3.025 5.99583 3.075 6.2375C3.125 6.47917 3.2 6.73333 3.3 7H1.175ZM11 18L7.825 15.15C7.375 14.7333 6.95833 14.35 6.575 14C6.19167 13.65 5.83333 13.3167 5.5 13H8.425C8.80833 13.3333 9.2125 13.6917 9.6375 14.075C10.0625 14.4583 10.5167 14.8667 11 15.3C11.2833 15.0667 11.5458 14.8417 11.7875 14.625C12.0292 14.4083 12.2667 14.1917 12.5 13.975C12.7333 14.225 12.9792 14.4542 13.2375 14.6625C13.4958 14.8708 13.775 15.0583 14.075 15.225L11 18ZM17 14C16.7167 14 16.4792 13.9042 16.2875 13.7125C16.0958 13.5208 16 13.2833 16 13C16 12.7167 16.0958 12.4792 16.2875 12.2875C16.4792 12.0958 16.7167 12 17 12C17.2833 12 17.5208 12.0958 17.7125 12.2875C17.9042 12.4792 18 12.7167 18 13C18 13.2833 17.9042 13.5208 17.7125 13.7125C17.5208 13.9042 17.2833 14 17 14ZM16 11V6H18V11H16ZM0 11C0 10.6667 0 10.3333 0 10C0 9.66667 0 9.33333 0 9H4.45L6.2 6.425C6.3 6.275 6.42083 6.16667 6.5625 6.1C6.70417 6.03333 6.85833 6 7.025 6C7.19167 6 7.34583 6.0375 7.4875 6.1125C7.62917 6.1875 7.75 6.3 7.85 6.45L9.55 9H11.1C11.0667 9.16667 11.0417 9.32917 11.025 9.4875C11.0083 9.64583 11 9.81667 11 10C11 10.1833 11.0083 10.3542 11.025 10.5125C11.0417 10.6708 11.0667 10.8333 11.1 11H9C8.83333 11 8.675 10.9583 8.525 10.875C8.375 10.7917 8.25833 10.6833 8.175 10.55L7 8.8L5.825 10.55C5.74167 10.6833 5.625 10.7917 5.475 10.875C5.325 10.9583 5.16667 11 5 11H0Z" fill="#515F74"/>
</svg>
