<svg width="44" height="32" viewBox="0 0 44 32" fill="none" xmlns="http://www.w3.org/2000/svg">
<path d="M4 32C2.9 32 1.95833 31.6083 1.175 30.825C0.391667 30.0417 0 29.1 0 28V4C0 2.9 0.391667 1.95833 1.175 1.175C1.95833 0.391667 2.9 0 4 0H36C37.1 0 38.0417 0.391667 38.825 1.175C39.6083 1.95833 40 2.9 40 4V11.95H38H36V8L20 18L4 8V28V28V28H28V32H4V32M20 14L36 4H4L20 14V14M4 28V28V22C4 19.2333 4 16.875 4 14.925C4 12.975 4 12 4 12V12V8V4V4V8V28V28V28V28M34 32C33.4333 32 32.9583 31.8083 32.575 31.425C32.1917 31.0417 32 30.5667 32 30V24C32 23.4333 32.1917 22.9583 32.575 22.575C32.9583 22.1917 33.4333 22 34 22V22V20C34 18.9 34.3917 17.9583 35.175 17.175C35.9583 16.3917 36.9 16 38 16C39.1 16 40.0417 16.3917 40.825 17.175C41.6083 17.9583 42 18.9 42 20V22V22C42.5667 22 43.0417 22.1917 43.425 22.575C43.8083 22.9583 44 23.4333 44 24V30C44 30.5667 43.8083 31.0417 43.425 31.425C43.0417 31.8083 42.5667 32 42 32H34V32M36 22H40V20C40 19.4333 39.8083 18.9583 39.425 18.575C39.0417 18.1917 38.5667 18 38 18C37.4333 18 36.9583 18.1917 36.575 18.575C36.1917 18.9583 36 19.4333 36 20V22V22" fill="#4A6549"/>
</svg>
