<svg width="20" height="20" viewBox="0 0 20 20" fill="none" xmlns="http://www.w3.org/2000/svg">
<path d="M10 20C8.61667 20 7.31667 19.7375 6.1 19.2125C4.88333 18.6875 3.825 17.975 2.925 17.075C2.025 16.175 1.3125 15.1167 0.7875 13.9C0.2625 12.6833 0 11.3833 0 10C0 8.61667 0.2625 7.31667 0.7875 6.1C1.3125 4.88333 2.025 3.825 2.925 2.925C3.825 2.025 4.88333 1.3125 6.1 0.7875C7.31667 0.2625 8.61667 0 10 0H11V8.275C11.3 8.45833 11.5417 8.69583 11.725 8.9875C11.9083 9.27917 12 9.61667 12 10C12 10.55 11.8042 11.0208 11.4125 11.4125C11.0208 11.8042 10.55 12 10 12C9.45 12 8.97917 11.8042 8.5875 11.4125C8.19583 11.0208 8 10.55 8 10C8 9.61667 8.09167 9.275 8.275 8.975C8.45833 8.675 8.7 8.44167 9 8.275V6.125C8.13333 6.35833 7.41667 6.82917 6.85 7.5375C6.28333 8.24583 6 9.06667 6 10C6 11.1 6.39167 12.0417 7.175 12.825C7.95833 13.6083 8.9 14 10 14C11.1 14 12.0417 13.6083 12.825 12.825C13.6083 12.0417 14 11.1 14 10C14 9.4 13.8792 8.84583 13.6375 8.3375C13.3958 7.82917 13.0667 7.38333 12.65 7L14.075 5.575C14.6583 6.125 15.125 6.77917 15.475 7.5375C15.825 8.29583 16 9.11667 16 10C16 11.6667 15.4167 13.0833 14.25 14.25C13.0833 15.4167 11.6667 16 10 16C8.33333 16 6.91667 15.4167 5.75 14.25C4.58333 13.0833 4 11.6667 4 10C4 8.5 4.475 7.19583 5.425 6.0875C6.375 4.97917 7.56667 4.30833 9 4.075V2.05C7.01667 2.3 5.35417 3.175 4.0125 4.675C2.67083 6.175 2 7.95 2 10C2 12.2333 2.775 14.125 4.325 15.675C5.875 17.225 7.76667 18 10 18C12.2333 18 14.125 17.225 15.675 15.675C17.225 14.125 18 12.2333 18 10C18 8.85 17.775 7.775 17.325 6.775C16.875 5.775 16.2583 4.90833 15.475 4.175L16.9 2.75C17.85 3.66667 18.6042 4.74583 19.1625 5.9875C19.7208 7.22917 20 8.56667 20 10C20 11.3833 19.7375 12.6833 19.2125 13.9C18.6875 15.1167 17.975 16.175 17.075 17.075C16.175 17.975 15.1167 18.6875 13.9 19.2125C12.6833 19.7375 11.3833 20 10 20V20" fill="#4A6549"/>
</svg>
