<svg width="30" height="33" viewBox="0 0 30 33" fill="none" xmlns="http://www.w3.org/2000/svg">
<path d="M27.825 24.225L25.575 21.975C25.85 21.3 26.0563 20.6313 26.1938 19.9688C26.3313 19.3062 26.4 18.65 26.4 18C26.4 15.1 25.375 12.625 23.325 10.575C21.275 8.525 18.8 7.5 15.9 7.5C15.3 7.5 14.6625 7.5625 13.9875 7.6875C13.3125 7.8125 12.6125 8.0125 11.8875 8.2875L9.6375 6.0375C10.5875 5.5375 11.5938 5.15625 12.6562 4.89375C13.7188 4.63125 14.8 4.5 15.9 4.5C17.4 4.5 18.8687 4.75 20.3062 5.25C21.7437 5.75 23.1 6.475 24.375 7.425L26.475 5.325L28.575 7.425L26.475 9.525C27.425 10.8 28.15 12.1562 28.65 13.5938C29.15 15.0312 29.4 16.5 29.4 18C29.4 19.05 29.2688 20.0938 29.0063 21.1313C28.7438 22.1688 28.35 23.2 27.825 24.225V24.225M17.4 13.8V10.5H14.4V10.8L17.4 13.8V13.8M27.6 32.4L24 28.8C22.8 29.675 21.5062 30.3437 20.1187 30.8062C18.7312 31.2687 17.325 31.5 15.9 31.5C14.05 31.5 12.3062 31.1437 10.6687 30.4312C9.03125 29.7187 7.6 28.75 6.375 27.525C5.15 26.3 4.18125 24.8688 3.46875 23.2313C2.75625 21.5938 2.4 19.85 2.4 18C2.4 16.5 2.63125 15.0562 3.09375 13.6687C3.55625 12.2812 4.225 11.025 5.1 9.9L0 4.8L2.1 2.7L29.7 30.3L27.6 32.4V32.4M15.9 28.5C16.95 28.5 17.975 28.3375 18.975 28.0125C19.975 27.6875 20.9125 27.225 21.7875 26.625L7.2 12.0375C6.6 12.9125 6.15 13.85 5.85 14.85C5.55 15.85 5.4 16.9 5.4 18C5.4 20.9 6.425 23.375 8.475 25.425C10.525 27.475 13 28.5 15.9 28.5V28.5M11.4 3V0H20.4V3H11.4V3M14.5125 19.3125V19.3125V19.3125V19.3125V19.3125V19.3125V19.3125V19.3125V19.3125M18.75 15.1125V15.1125V15.1125V15.1125V15.1125V15.1125V15.1125V15.1125V15.1125" fill="#434841"/>
</svg>
