<svg width="28" height="20" viewBox="0 0 28 20" fill="none" xmlns="http://www.w3.org/2000/svg">
<path d="M10 20C9.60417 20 9.25 19.8854 8.9375 19.6562C8.625 19.4271 8.39583 19.1354 8.25 18.7812L5.375 11.25H0V8.75H7.125L10 16.375L15.75 1.21875C15.8958 0.864583 16.125 0.572917 16.4375 0.34375C16.75 0.114583 17.1042 0 17.5 0C17.8958 0 18.25 0.114583 18.5625 0.34375C18.875 0.572917 19.1042 0.864583 19.25 1.21875L22.125 8.75H27.5V11.25H20.375L17.5 3.625L11.75 18.7812C11.6042 19.1354 11.375 19.4271 11.0625 19.6562C10.75 19.8854 10.3958 20 10 20V20" fill="#7D525F"/>
</svg>
