<svg width="18" height="18" viewBox="0 0 18 18" fill="none" xmlns="http://www.w3.org/2000/svg">
<path d="M9 9C9.83333 9 10.5417 8.70833 11.125 8.125C11.7083 7.54167 12 6.83333 12 6C12 5.16667 11.7083 4.45833 11.125 3.875C10.5417 3.29167 9.83333 3 9 3C8.16667 3 7.45833 3.29167 6.875 3.875C6.29167 4.45833 6 5.16667 6 6C6 6.83333 6.29167 7.54167 6.875 8.125C7.45833 8.70833 8.16667 9 9 9ZM7.5 6.5C7.36667 6.5 7.25 6.45 7.15 6.35C7.05 6.25 7 6.13333 7 6C7 5.86667 7.05 5.75 7.15 5.65C7.25 5.55 7.36667 5.5 7.5 5.5C7.63333 5.5 7.75 5.55 7.85 5.65C7.95 5.75 8 5.86667 8 6C8 6.13333 7.95 6.25 7.85 6.35C7.75 6.45 7.63333 6.5 7.5 6.5ZM9 6.5C8.86667 6.5 8.75 6.45 8.65 6.35C8.55 6.25 8.5 6.13333 8.5 6C8.5 5.86667 8.55 5.75 8.65 5.65C8.75 5.55 8.86667 5.5 9 5.5C9.13333 5.5 9.25 5.55 9.35 5.65C9.45 5.75 9.5 5.86667 9.5 6C9.5 6.13333 9.45 6.25 9.35 6.35C9.25 6.45 9.13333 6.5 9 6.5ZM10.5 6.5C10.3667 6.5 10.25 6.45 10.15 6.35C10.05 6.25 10 6.13333 10 6C10 5.86667 10.05 5.75 10.15 5.65C10.25 5.55 10.3667 5.5 10.5 5.5C10.6333 5.5 10.75 5.55 10.85 5.65C10.95 5.75 11 5.86667 11 6C11 6.13333 10.95 6.25 10.85 6.35C10.75 6.45 10.6333 6.5 10.5 6.5ZM2 18C1.45 18 0.979167 17.8042 0.5875 17.4125C0.195833 17.0208 0 16.55 0 16V2C0 1.45 0.195833 0.979167 0.5875 0.5875C0.979167 0.195833 1.45 0 2 0H16C16.55 0 17.0208 0.195833 17.4125 0.5875C17.8042 0.979167 18 1.45 18 2V16C18 16.55 17.8042 17.0208 17.4125 17.4125C17.0208 17.8042 16.55 18 16 18H2ZM2 16H16V2H2V16Z" fill="#7D525F"/>
</svg>
