<svg width="10" height="11" viewBox="0 0 10 11" fill="none" xmlns="http://www.w3.org/2000/svg">
<path d="M3.15 7.875L4.66667 6.35833L6.18333 7.875L7 7.05833L5.48333 5.54167L7 4.025L6.18333 3.20833L4.66667 4.725L3.15 3.20833L2.33333 4.025L3.85 5.54167L2.33333 7.05833L3.15 7.875V7.875M1.75 10.5C1.42917 10.5 1.15451 10.3858 0.926042 10.1573C0.697569 9.92882 0.583333 9.65417 0.583333 9.33333V1.75H0V0.583333H2.91667V0H6.41667V0.583333H9.33333V1.75H8.75V9.33333C8.75 9.65417 8.63576 9.92882 8.40729 10.1573C8.17882 10.3858 7.90417 10.5 7.58333 10.5H1.75V10.5M7.58333 1.75H1.75V9.33333V9.33333V9.33333H7.58333V9.33333V9.33333V1.75V1.75M1.75 1.75V1.75V9.33333V9.33333V9.33333V9.33333V9.33333V9.33333V1.75V1.75" fill="#BA1A1A"/>
</svg>
