<svg width="25" height="22" viewBox="0 0 25 22" fill="none" xmlns="http://www.w3.org/2000/svg">
<path d="M11.875 21.25C10.8333 21.25 9.94792 20.8854 9.21875 20.1562C8.48958 19.4271 8.125 18.5417 8.125 17.5H10.625C10.625 17.8542 10.7448 18.151 10.9844 18.3906C11.224 18.6302 11.5208 18.75 11.875 18.75C12.2292 18.75 12.526 18.6302 12.7656 18.3906C13.0052 18.151 13.125 17.8542 13.125 17.5C13.125 17.1458 13.0052 16.849 12.7656 16.6094C12.526 16.3698 12.2292 16.25 11.875 16.25H0V13.75H11.875C12.9167 13.75 13.8021 14.1146 14.5312 14.8438C15.2604 15.5729 15.625 16.4583 15.625 17.5C15.625 18.5417 15.2604 19.4271 14.5312 20.1562C13.8021 20.8854 12.9167 21.25 11.875 21.25V21.25M0 8.75V6.25H16.875C17.4167 6.25 17.8646 6.07292 18.2188 5.71875C18.5729 5.36458 18.75 4.91667 18.75 4.375C18.75 3.83333 18.5729 3.38542 18.2188 3.03125C17.8646 2.67708 17.4167 2.5 16.875 2.5C16.3333 2.5 15.8854 2.67708 15.5312 3.03125C15.1771 3.38542 15 3.83333 15 4.375H12.5C12.5 3.14583 12.9219 2.10938 13.7656 1.26562C14.6094 0.421875 15.6458 0 16.875 0C18.1042 0 19.1406 0.421875 19.9844 1.26562C20.8281 2.10938 21.25 3.14583 21.25 4.375C21.25 5.60417 20.8281 6.64062 19.9844 7.48438C19.1406 8.32812 18.1042 8.75 16.875 8.75H0V8.75M20.625 18.75V16.25C21.1667 16.25 21.6146 16.0729 21.9688 15.7188C22.3229 15.3646 22.5 14.9167 22.5 14.375C22.5 13.8333 22.3229 13.3854 21.9688 13.0312C21.6146 12.6771 21.1667 12.5 20.625 12.5H0V10H20.625C21.8542 10 22.8906 10.4219 23.7344 11.2656C24.5781 12.1094 25 13.1458 25 14.375C25 15.6042 24.5781 16.6406 23.7344 17.4844C22.8906 18.3281 21.8542 18.75 20.625 18.75V18.75" fill="#4A6549"/>
</svg>
